# xmcd
#
# Track frame offsets:
#	150
#	13702
#	27622
#	41170
#	55557
#	69265
#	84022
#	96227
#	108990
#	121647
#	132882
#	146300
#	160012
#	172520
#	186210
#	198690
#	210832
#	223902
#	237030
#	251477
#
# Disc length: 3524 seconds
#
# Revision: 2
# Processed by: cddbd v1.5.2PL0 Copyright (c) Steve Scherf et al.
# Submitted via: CDex 1.70beta2
#
DISCID=000dc214
DTITLE=Various Artist - Hometown Skiffle
DYEAR=1929
DGENRE=Skiffle
TTITLE0=Blind Roosevelt Graves - Bustin' the Jug
TTITLE1=Blind Roosevelt Graves - Crazy About My Baby
TTITLE2=Buddy Boy Hawkins - A Rag Blues
TTITLE3=Buddy Boy Hawkins - Snatch It and Grab It
TTITLE4=Hometown Skiffle - Part I
TTITLE5=Hometown Skiffle - Part Ii
TTITLE6=Beale Street Sheiks - Mr. Crump Don't Like It
TTITLE7=Beale Street Sheiks - Jazzin' the Blues
TTITLE8=Tampa Red - Through Train Blues
TTITLE9=Charlie Spand - Fetch Your Water
TTITLE10=Charlie Spand - Soon This Morning
TTITLE11=Dad Nelson - Cleveland Stomp
TTITLE12=Blind Blake - He's in the Jailhouse Now
TTITLE13=Blind Blake - Blind Arthur's Breakdown
TTITLE14=Johnnie Head - Fare Thee Blues Part 1
TTITLE15=Papa Charlie Jackson - Forgotten Blues
TTITLE16=Blind Blake - Southern Rag
TTITLE17=Blind Roosevelt Graves - Guitar Boogie
TTITLE18=Blind Roosevelt Graves - New York Blues
TTITLE19=Will Ezell - Just Can't Stay Here
EXTD=YEAR: 1929
EXTT0=
EXTT1=
EXTT2=
EXTT3=
EXTT4=
EXTT5=
EXTT6=
EXTT7=
EXTT8=
EXTT9=
EXTT10=
EXTT11=
EXTT12=
EXTT13=
EXTT14=
EXTT15=
EXTT16=
EXTT17=
EXTT18=
EXTT19=
PLAYORDER=
